<svg xmlns="http://www.w3.org/2000/svg" width="210mm" height="297mm" viewBox="0 0 210 297" font-family="Arial,sans-serif">
  <rect width="210" height="297" fill="#ffffff"/>
  <defs>
    <marker id="arr" markerWidth="6" markerHeight="6" refX="5" refY="3" orient="auto"><path d="M0,0 L6,3 L0,6 Z" fill="#E0566B"/></marker>
  </defs>
  <text x="105" y="22" text-anchor="middle" font-size="6" font-weight="bold" fill="#000">دائرة قطرها 10 سم — قُصَّ على الخطّ المتقطّع</text>
  <text x="105" y="32" text-anchor="middle" font-size="3.5" fill="#555">اطبع على A4 بمقياس 100%</text>

  <circle cx="105" cy="125" r="50" fill="#E4F0F8" stroke="#E0566B" stroke-width="1" stroke-dasharray="4,2"/>

  <text x="100" y="68" font-size="10" fill="#E0566B">✂</text>
  <path d="M 110,76 A 50,50 0 0 1 140,98" fill="none" stroke="#E0566B" stroke-width="0.6" marker-end="url(#arr)"/>
  <text x="120" y="65" text-anchor="middle" font-size="3" fill="#E0566B">ابدأ من هنا</text>

  <line x1="55" y1="125" x2="155" y2="125" stroke="#C7613F" stroke-width="0.4" stroke-dasharray="2,2"/>
  <text x="105" y="121" text-anchor="middle" font-size="4.5" fill="#C7613F">القطر = 10 سم</text>
  <circle cx="105" cy="125" r="0.8" fill="#C7613F"/>
  <text x="108" y="135" font-size="3.5" fill="#555">المركز</text>
  <line x1="105" y1="125" x2="105" y2="80" stroke="#7BB661" stroke-width="0.4"/>
  <text x="108" y="103" font-size="3.5" fill="#5E9A47">نصف القطر 5 cm</text>

  <circle cx="105" cy="82" r="1.5" fill="none" stroke="#5E9A47" stroke-width="0.4" stroke-dasharray="0.6,0.6"/>
  <text x="111" y="84" font-size="3" fill="#5E9A47">اثقب هنا</text>

  <g transform="translate(28,205)">
    <text x="77" y="0" text-anchor="middle" font-size="4.5" fill="#000" font-weight="bold">🧵 اثقب نقطةً في الأعلى ومرّر خيطًا للتعليق</text>
    <line x1="77" y1="6" x2="77" y2="22" stroke="#3a4250" stroke-width="0.5" stroke-dasharray="2,1.5"/>
    <circle cx="77" cy="40" r="18" fill="#E4F0F8" stroke="#E0566B" stroke-width="0.6" stroke-dasharray="2,1.5"/>
    <circle cx="77" cy="22" r="1" fill="none" stroke="#5E9A47"/>
  </g>

  <text x="105" y="280" text-anchor="middle" font-size="3" fill="#555">مسطرة فحص (5 cm)</text>
  <line x1="80" y1="285" x2="130" y2="285" stroke="#000" stroke-width="0.5"/>
  <g stroke="#000" stroke-width="0.3"><line x1="80" y1="282" x2="80" y2="288"/><line x1="130" y1="282" x2="130" y2="288"/></g>
</svg>
